<svg xmlns="http://www.w3.org/2000/svg" viewBox="0 0 192 192" width="192" height="192">
  <defs>
    <linearGradient id="g" x1="0" y1="0" x2="1" y2="1">
      <stop offset="0%" stop-color="#06C0E0"/>
      <stop offset="100%" stop-color="#2F80ED"/>
    </linearGradient>
  </defs>
  <rect width="192" height="192" rx="44" fill="#080E17"/>
  <rect x="28" y="24" width="136" height="144" rx="26" fill="#0F1D2E" stroke="#1D3A56" stroke-width="4"/>
  <path d="M60 62a18 18 0 0 1 25 0l9 9-12 12-9-9a6 6 0 0 0-8 8l9 9-12 12-9-9a18 18 0 0 1 0-25z" fill="url(#g)"/>
  <path d="M132 130a18 18 0 0 1-25 0l-9-9 12-12 9 9a6 6 0 0 0 8-8l-9-9 12-12 9 9a18 18 0 0 1 0 25z" fill="url(#g)"/>
  <path d="M80 110l32-32" stroke="#9EE8F7" stroke-width="8" stroke-linecap="round"/>
</svg>
