<svg xmlns="http://www.w3.org/2000/svg" viewBox="0 0 512 512" width="512" height="512">
  <defs>
    <linearGradient id="g" x1="0" y1="0" x2="1" y2="1">
      <stop offset="0%" stop-color="#06C0E0"/>
      <stop offset="100%" stop-color="#2F80ED"/>
    </linearGradient>
  </defs>
  <rect width="512" height="512" rx="120" fill="#080E17"/>
  <rect x="74" y="64" width="364" height="384" rx="72" fill="#0F1D2E" stroke="#1D3A56" stroke-width="10"/>
  <path d="M154 166a48 48 0 0 1 67 0l24 24-32 32-24-24a16 16 0 0 0-22 22l24 24-32 32-24-24a48 48 0 0 1 0-67z" fill="url(#g)"/>
  <path d="M358 370a48 48 0 0 1-67 0l-24-24 32-32 24 24a16 16 0 0 0 22-22l-24-24 32-32 24 24a48 48 0 0 1 0 67z" fill="url(#g)"/>
  <path d="M214 294l84-84" stroke="#9EE8F7" stroke-width="18" stroke-linecap="round"/>
</svg>
