<svg xmlns="http://www.w3.org/2000/svg" viewBox="0 0 96 96" width="96" height="96">
  <defs>
    <linearGradient id="g" x1="0" y1="0" x2="1" y2="1">
      <stop offset="0%" stop-color="#06C0E0"/>
      <stop offset="100%" stop-color="#2F80ED"/>
    </linearGradient>
  </defs>
  <rect width="96" height="96" rx="22" fill="#0C1624"/>
  <rect x="12" y="12" width="72" height="72" rx="16" fill="#122338" stroke="#24445F" stroke-width="2"/>
  <path d="M30 32a10 10 0 0 1 14 0l4 4-6 6-4-4a2 2 0 0 0-3 3l4 4-6 6-4-4a10 10 0 0 1 0-14z" fill="url(#g)"/>
  <path d="M66 64a10 10 0 0 1-14 0l-4-4 6-6 4 4a2 2 0 0 0 3-3l-4-4 6-6 4 4a10 10 0 0 1 0 14z" fill="url(#g)"/>
  <path d="M40 56l16-16" stroke="#9EE8F7" stroke-width="4" stroke-linecap="round"/>
</svg>
