<svg xmlns="http://www.w3.org/2000/svg" viewBox="0 0 96 96" width="96" height="96">
  <defs>
    <linearGradient id="bg" x1="0" y1="0" x2="1" y2="1">
      <stop offset="0%" stop-color="#071321"/>
      <stop offset="100%" stop-color="#0E2239"/>
    </linearGradient>
    <linearGradient id="hub" x1="0" y1="0" x2="1" y2="1">
      <stop offset="0%" stop-color="#14D3C3"/>
      <stop offset="100%" stop-color="#2F80ED"/>
    </linearGradient>
  </defs>
  <rect width="96" height="96" rx="22" fill="url(#bg)"/>
  <circle cx="48" cy="48" r="30" fill="none" stroke="#1f3a56" stroke-width="2"/>
  <circle cx="48" cy="48" r="22" fill="none" stroke="#1a314a" stroke-width="2"/>
  <path d="M48 48 L48 18" stroke="#59b8ff" stroke-width="2.4" stroke-linecap="round"/>
  <path d="M48 48 L78 48" stroke="#59b8ff" stroke-width="2.4" stroke-linecap="round"/>
  <path d="M48 48 L48 78" stroke="#59b8ff" stroke-width="2.4" stroke-linecap="round"/>
  <path d="M48 48 L18 48" stroke="#59b8ff" stroke-width="2.4" stroke-linecap="round"/>
  <circle cx="48" cy="48" r="10" fill="#0e2d43" stroke="#2b6a93"/>
  <circle cx="48" cy="48" r="7.4" fill="url(#hub)"/>
  <circle cx="48" cy="18" r="5.8" fill="#0f2a41" stroke="#88ceff" stroke-width="1.5"/>
  <circle cx="78" cy="48" r="5.8" fill="#0f2a41" stroke="#88ceff" stroke-width="1.5"/>
  <circle cx="48" cy="78" r="5.8" fill="#0f2a41" stroke="#88ceff" stroke-width="1.5"/>
  <circle cx="18" cy="48" r="5.8" fill="#0f2a41" stroke="#88ceff" stroke-width="1.5"/>
  <path d="m57.3 50.5l-.04.03l-3.04 2.98a.1.1 0 0 0 0 .14l.01.01l.63.61a.29.29 0 0 1 0 .41l-.01.01a.3.3 0 0 1-.42 0l-.62-.61a.67.67 0 0 1 0-.96l3.04-2.98a.86.86 0 0 0 .02-1.22l-.01-.02l-.02-.01a.91.91 0 0 0-1.26 0l-2.51 2.46h-.01l-.03.03a.3.3 0 0 1-.42 0a.29.29 0 0 1 0-.41l.01-.01l2.54-2.49a.86.86 0 0 0 .01-1.22l-.02-.02a.91.91 0 0 0-1.26 0l-3.37 3.31a.3.3 0 0 1-.42 0a.29.29 0 0 1-.01-.41l.01-.01l3.35-3.29a1.51 1.51 0 0 1 2.1 0a1.36 1.36 0 0 1 .43 1.24a1.34 1.34 0 0 1 1.25.41l.02.01a1.44 1.44 0 0 1 .02 2.04m-.89-.82a.29.29 0 0 0 0-.41l-.01-.01a.3.3 0 0 0-.42 0l-2.49 2.44a.91.91 0 0 1-1.26 0a.86.86 0 0 1 0-1.24l2.49-2.44a.29.29 0 0 0 0-.41l-.01-.01a.3.3 0 0 0-.42 0l-2.49 2.44a1.44 1.44 0 0 0 0 2.06a1.51 1.51 0 0 0 2.1 0z" fill="#06C0E0" transform="translate(-7 -7) scale(0.32)"/>
</svg>
