<svg xmlns="http://www.w3.org/2000/svg" viewBox="0 0 520 180" width="520" height="180">
  <defs>
    <linearGradient id="bg" x1="0" y1="0" x2="1" y2="1">
      <stop offset="0%" stop-color="#0E1B2B"/>
      <stop offset="100%" stop-color="#12253D"/>
    </linearGradient>
    <linearGradient id="ink" x1="0" y1="0" x2="1" y2="1">
      <stop offset="0%" stop-color="#06C0E0"/>
      <stop offset="100%" stop-color="#2F80ED"/>
    </linearGradient>
  </defs>
  <rect width="520" height="180" rx="24" fill="url(#bg)"/>
  <g transform="translate(26 30)">
    <rect width="112" height="112" rx="24" fill="#13263C" stroke="#24445F" stroke-width="2"/>
    <path d="M38 42a15 15 0 0 1 21 0l7 7-9 9-7-7a5 5 0 0 0-7 7l7 7-9 9-7-7a15 15 0 0 1 0-21z" fill="url(#ink)"/>
    <path d="M74 78a15 15 0 0 1-21 0l-7-7 9-9 7 7a5 5 0 1 0 7-7l-7-7 9-9 7 7a15 15 0 0 1 0 21z" fill="url(#ink)"/>
    <path d="M52 70l20-20" stroke="#9EE8F7" stroke-width="5" stroke-linecap="round"/>
  </g>
  <text x="165" y="82" fill="#EAF4FF" font-size="44" font-family="Sora, Segoe UI, sans-serif" font-weight="700">LinkSync AI</text>
  <text x="165" y="116" fill="#9FC1DB" font-size="18" font-family="Plus Jakarta Sans, Segoe UI, sans-serif">Your links, synced smarter by MCP + AI.</text>
</svg>
