<svg xmlns="http://www.w3.org/2000/svg" viewBox="0 0 960 380" width="960" height="380" role="img" aria-labelledby="title desc">
  <title id="title">LinkSync AI connected network hero</title>
  <desc id="desc">An animated LinkSync AI hub shows AI agents organizing disorganized web links into folders, tags, and suggestions.</desc>
  <defs>
    <linearGradient id="bg" x1="0" y1="0" x2="1" y2="1">
      <stop offset="0%" stop-color="#071321"/>
      <stop offset="100%" stop-color="#0E2239"/>
    </linearGradient>
    <linearGradient id="hub" x1="0" y1="0" x2="1" y2="1">
      <stop offset="0%" stop-color="#14D3C3"/>
      <stop offset="100%" stop-color="#2F80ED"/>
    </linearGradient>
    <filter id="glow" x="-60%" y="-60%" width="220%" height="220%">
      <feGaussianBlur stdDeviation="4" result="blur"/>
      <feMerge>
        <feMergeNode in="blur"/>
        <feMergeNode in="SourceGraphic"/>
      </feMerge>
    </filter>
    <filter id="cardGlow" x="-30%" y="-30%" width="160%" height="160%">
      <feGaussianBlur stdDeviation="8" result="blur"/>
      <feMerge>
        <feMergeNode in="blur"/>
        <feMergeNode in="SourceGraphic"/>
      </feMerge>
    </filter>
    <marker id="arrowHead" viewBox="0 0 10 10" refX="8" refY="5" markerWidth="6" markerHeight="6" orient="auto-start-reverse">
      <path d="M0 0 L10 5 L0 10 z" fill="#8ed5ff"/>
    </marker>
    <path id="aiOrbitPath" d="M300 180 m -158 0 a 158 158 0 1 1 316 0 a 158 158 0 1 1 -316 0"/>
    <style>
      .clutter {
        opacity: 0.62;
      }
      .clutterLine {
        stroke: #6e95b8;
        stroke-width: 2;
        stroke-linecap: round;
      }
      .clutterChip {
        fill: #10273d;
        stroke: #355a7a;
      }
      .organizeCard {
        fill: #112b42;
        stroke: #4c7aa1;
      }
      .line {
        stroke: #59b8ff;
        stroke-width: 2.5;
        fill: none;
        stroke-linecap: round;
        stroke-dasharray: 340;
        stroke-dashoffset: 340;
        opacity: 0.9;
        marker-end: url(#arrowHead);
      }
      .thread {
        stroke: #5d8eb5;
        stroke-width: 2.1;
        fill: none;
        stroke-linecap: round;
        opacity: 0.65;
      }
      .badge {
        opacity: 0;
      }
      .badgeCore {
        stroke: #88ceff;
        stroke-width: 1.5;
      }
      .label {
        fill: #f4fbff;
        font-family: "Plus Jakarta Sans", "Segoe UI", sans-serif;
        font-weight: 700;
      }
      .tag {
        fill: #c5def3;
        font-family: "Plus Jakarta Sans", "Segoe UI", sans-serif;
        font-size: 14px;
      }
      .brand {
        fill: #f3fbff;
        font-family: "Sora", "Segoe UI", sans-serif;
        font-weight: 700;
        font-size: 14px;
        letter-spacing: 0.2px;
      }
      .power {
        fill: #7ed4ff;
        opacity: 0;
      }
      .chipLabel {
        fill: #eaf6ff;
        font-family: "Plus Jakarta Sans", "Segoe UI", sans-serif;
        font-size: 11px;
        font-weight: 700;
        letter-spacing: 0.2px;
      }
      .brandMain {
        fill: #ecf8ff;
        font-family: "Sora", "Segoe UI", sans-serif;
        font-weight: 800;
        letter-spacing: 0.3px;
        paint-order: stroke fill;
        stroke: #071321;
        stroke-width: 1.2;
      }
      .brandSub {
        fill: #cde7fb;
        font-family: "Plus Jakarta Sans", "Segoe UI", sans-serif;
        font-weight: 700;
        letter-spacing: 0.1px;
        paint-order: stroke fill;
        stroke: #071321;
        stroke-width: 0.9;
      }
      .outcomeLink {
        stroke: #06C0E0;
        stroke-width: 1.8;
        fill: none;
        stroke-linecap: round;
        opacity: 0.6;
        stroke-dasharray: 260;
        stroke-dashoffset: 260;
      }
    </style>
  </defs>

  <rect width="960" height="380" rx="26" fill="url(#bg)"/>

  <g opacity="0.35">
    <circle cx="300" cy="180" r="116" fill="none" stroke="#1f3a56"/>
    <circle cx="300" cy="180" r="144" fill="none" stroke="#1a314a"/>
  </g>

  <g class="clutter" transform="translate(36 52)">
    <rect class="clutterChip" x="0" y="58" width="120" height="18" rx="9">
      <animate attributeName="opacity" from="0.9" to="0" begin="2.2s" dur="1.1s" fill="freeze"/>
    </rect>
    <rect class="clutterChip" x="34" y="22" width="132" height="18" rx="9">
      <animate attributeName="opacity" from="0.85" to="0" begin="2.3s" dur="1.1s" fill="freeze"/>
    </rect>
    <rect class="clutterChip" x="10" y="98" width="146" height="18" rx="9">
      <animate attributeName="opacity" from="0.8" to="0" begin="2.4s" dur="1.1s" fill="freeze"/>
    </rect>
    <path class="clutterLine" d="M152 66 C184 78 196 116 228 140">
      <animate attributeName="opacity" from="0.9" to="0" begin="2.35s" dur="1s" fill="freeze"/>
    </path>
    <path class="clutterLine" d="M164 32 C210 40 204 88 238 124">
      <animate attributeName="opacity" from="0.8" to="0" begin="2.45s" dur="1s" fill="freeze"/>
    </path>
    <path class="clutterLine" d="M158 106 C206 124 204 142 236 156">
      <animate attributeName="opacity" from="0.85" to="0" begin="2.55s" dur="1s" fill="freeze"/>
    </path>
  </g>

  <g class="clutter" transform="translate(12 8)">
    <rect class="clutterChip" x="24" y="10" width="88" height="14" rx="7"><animate attributeName="opacity" from="0.78" to="0" begin="2.15s" dur="1.1s" fill="freeze"/></rect>
    <rect class="clutterChip" x="132" y="14" width="98" height="14" rx="7"><animate attributeName="opacity" from="0.75" to="0" begin="2.2s" dur="1.1s" fill="freeze"/></rect>
    <rect class="clutterChip" x="256" y="8" width="112" height="14" rx="7"><animate attributeName="opacity" from="0.72" to="0" begin="2.25s" dur="1.1s" fill="freeze"/></rect>
    <path class="clutterLine" d="M112 18 C158 46 210 36 256 15"><animate attributeName="opacity" from="0.7" to="0" begin="2.3s" dur="1s" fill="freeze"/></path>
  </g>

  <g class="clutter" transform="translate(4 286)">
    <rect class="clutterChip" x="12" y="16" width="96" height="14" rx="7"><animate attributeName="opacity" from="0.76" to="0" begin="2.35s" dur="1.1s" fill="freeze"/></rect>
    <rect class="clutterChip" x="128" y="20" width="110" height="14" rx="7"><animate attributeName="opacity" from="0.73" to="0" begin="2.4s" dur="1.1s" fill="freeze"/></rect>
    <rect class="clutterChip" x="266" y="14" width="94" height="14" rx="7"><animate attributeName="opacity" from="0.7" to="0" begin="2.45s" dur="1.1s" fill="freeze"/></rect>
    <path class="clutterLine" d="M108 23 C156 2 220 40 266 20"><animate attributeName="opacity" from="0.7" to="0" begin="2.5s" dur="1s" fill="freeze"/></path>
  </g>

  <g filter="url(#glow)">
    <circle cx="300" cy="180" r="44" fill="#59b8ff" opacity="0.12">
      <animate attributeName="opacity" values="0.08;0.18;0.08" dur="2.8s" repeatCount="indefinite"/>
    </circle>
    <circle cx="300" cy="180" r="34" fill="#0e2d43" stroke="#2b6a93"/>
    <circle cx="300" cy="180" r="26" fill="url(#hub)">
      <animate attributeName="r" values="22;26;22" dur="2.8s" repeatCount="indefinite"/>
    </circle>
  </g>

  <circle cx="300" cy="180" r="56" fill="none" stroke="#59b8ff" stroke-width="2.5" stroke-dasharray="352" stroke-dashoffset="352" opacity="0.85">
    <animate attributeName="stroke-dashoffset" from="352" to="0" begin="2.2s" dur="1.6s" fill="freeze"/>
  </circle>

  <g class="thread">
    <path d="M300 180 C224 90 210 238 146 96" stroke-dashoffset="0">
      <animate attributeName="stroke-dashoffset" from="0" to="-120" dur="2.4s" repeatCount="indefinite"/>
      <animate attributeName="opacity" from="0.65" to="0" begin="2.2s" dur="1.2s" fill="freeze"/>
    </path>
    <path d="M300 180 C248 120 352 118 300 52" stroke-dashoffset="0">
      <animate attributeName="stroke-dashoffset" from="0" to="-120" dur="2.1s" repeatCount="indefinite"/>
      <animate attributeName="opacity" from="0.65" to="0" begin="2.3s" dur="1.2s" fill="freeze"/>
    </path>
    <path d="M300 180 C356 88 360 226 454 96" stroke-dashoffset="0">
      <animate attributeName="stroke-dashoffset" from="0" to="-120" dur="2.5s" repeatCount="indefinite"/>
      <animate attributeName="opacity" from="0.65" to="0" begin="2.4s" dur="1.2s" fill="freeze"/>
    </path>
    <path d="M300 180 C382 126 394 226 472 180" stroke-dashoffset="0">
      <animate attributeName="stroke-dashoffset" from="0" to="-120" dur="2.2s" repeatCount="indefinite"/>
      <animate attributeName="opacity" from="0.65" to="0" begin="2.5s" dur="1.2s" fill="freeze"/>
    </path>
    <path d="M300 180 C352 248 356 164 454 264" stroke-dashoffset="0">
      <animate attributeName="stroke-dashoffset" from="0" to="-120" dur="2.35s" repeatCount="indefinite"/>
      <animate attributeName="opacity" from="0.65" to="0" begin="2.6s" dur="1.2s" fill="freeze"/>
    </path>
    <path d="M300 180 C256 232 344 252 300 308" stroke-dashoffset="0">
      <animate attributeName="stroke-dashoffset" from="0" to="-120" dur="2.15s" repeatCount="indefinite"/>
      <animate attributeName="opacity" from="0.65" to="0" begin="2.7s" dur="1.2s" fill="freeze"/>
    </path>
    <path d="M300 180 C230 244 220 160 146 264" stroke-dashoffset="0">
      <animate attributeName="stroke-dashoffset" from="0" to="-120" dur="2.4s" repeatCount="indefinite"/>
      <animate attributeName="opacity" from="0.65" to="0" begin="2.8s" dur="1.2s" fill="freeze"/>
    </path>
    <path d="M300 180 C220 160 218 200 128 180" stroke-dashoffset="0">
      <animate attributeName="stroke-dashoffset" from="0" to="-120" dur="2.05s" repeatCount="indefinite"/>
      <animate attributeName="opacity" from="0.65" to="0" begin="2.9s" dur="1.2s" fill="freeze"/>
    </path>
  </g>

  <g class="line">
    <path id="l1" d="M300 180 L146 96"><animate attributeName="stroke-dashoffset" from="340" to="0" begin="3s" dur="1.2s" fill="freeze"/></path>
    <path id="l2" d="M300 180 L300 52"><animate attributeName="stroke-dashoffset" from="340" to="0" begin="3.3s" dur="1.2s" fill="freeze"/></path>
    <path id="l3" d="M300 180 L454 96"><animate attributeName="stroke-dashoffset" from="340" to="0" begin="3.6s" dur="1.2s" fill="freeze"/></path>
    <path id="l4" d="M300 180 L472 180"><animate attributeName="stroke-dashoffset" from="340" to="0" begin="3.9s" dur="1.2s" fill="freeze"/></path>
    <path id="l5" d="M300 180 L454 264"><animate attributeName="stroke-dashoffset" from="340" to="0" begin="4.2s" dur="1.2s" fill="freeze"/></path>
    <path id="l6" d="M300 180 L300 308"><animate attributeName="stroke-dashoffset" from="340" to="0" begin="4.5s" dur="1.2s" fill="freeze"/></path>
    <path id="l7" d="M300 180 L146 264"><animate attributeName="stroke-dashoffset" from="340" to="0" begin="4.8s" dur="1.2s" fill="freeze"/></path>
    <path id="l8" d="M300 180 L128 180"><animate attributeName="stroke-dashoffset" from="340" to="0" begin="5.1s" dur="1.2s" fill="freeze"/></path>
  </g>

  <g class="power" filter="url(#glow)">
    <circle r="3">
      <animate attributeName="opacity" values="0;1;0" begin="4.1s" dur="1.7s" repeatCount="indefinite"/>
      <animateMotion dur="1.7s" begin="4.1s" repeatCount="indefinite"><mpath href="#l1"/></animateMotion>
    </circle>
    <circle r="3">
      <animate attributeName="opacity" values="0;1;0" begin="4.4s" dur="1.7s" repeatCount="indefinite"/>
      <animateMotion dur="1.7s" begin="4.4s" repeatCount="indefinite"><mpath href="#l2"/></animateMotion>
    </circle>
    <circle r="3">
      <animate attributeName="opacity" values="0;1;0" begin="4.7s" dur="1.7s" repeatCount="indefinite"/>
      <animateMotion dur="1.7s" begin="4.7s" repeatCount="indefinite"><mpath href="#l3"/></animateMotion>
    </circle>
    <circle r="3">
      <animate attributeName="opacity" values="0;1;0" begin="5s" dur="1.7s" repeatCount="indefinite"/>
      <animateMotion dur="1.7s" begin="5s" repeatCount="indefinite"><mpath href="#l4"/></animateMotion>
    </circle>
    <circle r="3">
      <animate attributeName="opacity" values="0;1;0" begin="5.3s" dur="1.7s" repeatCount="indefinite"/>
      <animateMotion dur="1.7s" begin="5.3s" repeatCount="indefinite"><mpath href="#l5"/></animateMotion>
    </circle>
    <circle r="3">
      <animate attributeName="opacity" values="0;1;0" begin="5.6s" dur="1.7s" repeatCount="indefinite"/>
      <animateMotion dur="1.7s" begin="5.6s" repeatCount="indefinite"><mpath href="#l6"/></animateMotion>
    </circle>
    <circle r="3">
      <animate attributeName="opacity" values="0;1;0" begin="5.9s" dur="1.7s" repeatCount="indefinite"/>
      <animateMotion dur="1.7s" begin="5.9s" repeatCount="indefinite"><mpath href="#l7"/></animateMotion>
    </circle>
    <circle r="3">
      <animate attributeName="opacity" values="0;1;0" begin="6.2s" dur="1.7s" repeatCount="indefinite"/>
      <animateMotion dur="1.7s" begin="6.2s" repeatCount="indefinite"><mpath href="#l8"/></animateMotion>
    </circle>
  </g>

  <g>
    <path class="outcomeLink" d="M454 264 L664 284"><animate attributeName="stroke-dashoffset" from="260" to="0" begin="6.25s" dur="0.55s" fill="freeze"/></path>
    <path class="outcomeLink" d="M454 264 L664 320"><animate attributeName="stroke-dashoffset" from="260" to="0" begin="6.35s" dur="0.55s" fill="freeze"/></path>
    <path class="outcomeLink" d="M454 264 L664 356"><animate attributeName="stroke-dashoffset" from="260" to="0" begin="6.45s" dur="0.55s" fill="freeze"/></path>
  </g>

  <g opacity="0">
    <animate attributeName="opacity" from="0" to="1" begin="6.35s" dur="0.5s" fill="freeze"/>

    <g transform="translate(664 272)">
      <rect x="0" y="0" width="112" height="24" rx="10" fill="#10384a" stroke="#06C0E0"/>
      <path d="M12 8h10l3 4-3 4H12z" fill="#06C0E0"/>
      <text x="30" y="16" class="chipLabel">Tags</text>
    </g>

    <g transform="translate(664 308)">
      <rect x="0" y="0" width="112" height="24" rx="10" fill="#10384a" stroke="#06C0E0"/>
      <path d="M10 8h10v8H8V6h8l2 2z" fill="#06C0E0"/>
      <text x="28" y="16" class="chipLabel">Folder</text>
    </g>

    <g transform="translate(664 344)">
      <rect x="0" y="0" width="112" height="24" rx="10" fill="#10384a" stroke="#06C0E0"/>
      <path d="M13 17l2.8-5.2L10.8 8h5.6L19 3l2.6 5h5.6l-5 3.8L25 17l-6-3z" fill="#06C0E0"/>
      <text x="33" y="16" class="chipLabel">Favorites</text>
    </g>

  </g>

  <g opacity="0">
    <animate attributeName="opacity" from="0" to="1" begin="6.7s" dur="0.5s" fill="freeze"/>
    <g filter="url(#glow)">
      <g>
        <animateMotion dur="14s" begin="6.7s" repeatCount="indefinite" rotate="auto">
          <mpath href="#aiOrbitPath"/>
        </animateMotion>
        <circle cx="0" cy="0" r="17" fill="none" stroke="#06C0E0" opacity="0.26">
          <animate attributeName="r" values="16;17.2;16" dur="3.2s" repeatCount="indefinite"/>
          <animate attributeName="opacity" values="0.14;0.28;0.14" dur="3.2s" repeatCount="indefinite"/>
        </circle>
        <circle cx="0" cy="0" r="13" fill="#122f48" stroke="#4e85ad"/>
        <path d="m14.557 8.468l-.055.054l-5.804 5.691a.183.183 0 0 0-.003.259l.003.003l1.192 1.17a.55.55 0 0 1 .011.776l-.01.01a.575.575 0 0 1-.803 0l-1.192-1.168a1.28 1.28 0 0 1 0-1.836l5.805-5.692a1.647 1.647 0 0 0 .031-2.328l-.031-.032l-.034-.032a1.725 1.725 0 0 0-2.405-.002l-4.781 4.69h-.002l-.065.065a.575.575 0 0 1-.803 0a.55.55 0 0 1-.01-.776l.01-.01l4.849-4.756c.65-.636.663-1.678.027-2.329l-.029-.03a1.725 1.725 0 0 0-2.407 0L1.635 8.489a.575.575 0 0 1-.802 0a.55.55 0 0 1-.011-.776l.011-.01L7.25 1.407a2.875 2.875 0 0 1 4.01 0c.63.613.929 1.49.803 2.36c.88-.125 1.77.166 2.406.787l.034.033a2.743 2.743 0 0 1 .053 3.88m-1.691-1.553a.55.55 0 0 0 .01-.776l-.01-.01a.575.575 0 0 0-.803 0l-4.746 4.654a1.725 1.725 0 0 1-2.407 0a1.647 1.647 0 0 1 0-2.36l4.747-4.655a.55.55 0 0 0 .011-.776l-.011-.01a.575.575 0 0 0-.803 0L4.108 7.635a2.743 2.743 0 0 0 0 3.933a2.876 2.876 0 0 0 4.011 0z" fill="#06C0E0" transform="translate(-6.8 -7.2) scale(0.85)"/>
        <path d="M9 -12l2.2 3.8L15 -6l-3.8 2.2L9 -0l-2.2-3.8L3 -6l3.8-2.2z" fill="#9df4dd" opacity="0.62">
          <animate attributeName="opacity" values="0.16;0.5;0.16" dur="3s" repeatCount="indefinite"/>
        </path>
        <rect x="9" y="2" width="10" height="8" rx="2" fill="#1a415f" stroke="#06C0E0" opacity="0.85"/>
        <path d="M12 6h4M12 8h4" stroke="#9df4dd" stroke-linecap="round" opacity="0.9"/>
      </g>
    </g>
  </g>

  <g class="badge" transform="translate(120 72)">
    <animate attributeName="opacity" from="0" to="1" begin="4s" dur="0.35s" fill="freeze"/>
    <circle class="badgeCore" cx="26" cy="24" r="20" fill="#4A154B"/>
    <path d="M20 14a4 4 0 1 1 8 0v4h-8zM28 18a4 4 0 1 1 0 8h-4v-8zM32 26a4 4 0 1 1-8 0v-4h8zM24 22a4 4 0 1 1 0-8h4v8z" fill="#fff"/>
  </g>

  <g fill="none" stroke="#9df4dd" stroke-width="2" opacity="0">
    <circle cx="146" cy="96" r="20">
      <animate attributeName="r" values="18;26;18" begin="6.7s" dur="8s" repeatCount="indefinite"/>
      <animate attributeName="opacity" values="0;0.75;0" begin="6.7s" dur="8s" repeatCount="indefinite"/>
    </circle>
    <circle cx="300" cy="52" r="20">
      <animate attributeName="r" values="18;26;18" begin="8.03s" dur="8s" repeatCount="indefinite"/>
      <animate attributeName="opacity" values="0;0.75;0" begin="8.03s" dur="8s" repeatCount="indefinite"/>
    </circle>
    <circle cx="454" cy="96" r="20">
      <animate attributeName="r" values="18;26;18" begin="9.36s" dur="8s" repeatCount="indefinite"/>
      <animate attributeName="opacity" values="0;0.75;0" begin="9.36s" dur="8s" repeatCount="indefinite"/>
    </circle>
    <circle cx="472" cy="180" r="20">
      <animate attributeName="r" values="18;26;18" begin="10.7s" dur="8s" repeatCount="indefinite"/>
      <animate attributeName="opacity" values="0;0.75;0" begin="10.7s" dur="8s" repeatCount="indefinite"/>
    </circle>
    <circle cx="454" cy="264" r="20">
      <animate attributeName="r" values="18;26;18" begin="12.03s" dur="8s" repeatCount="indefinite"/>
      <animate attributeName="opacity" values="0;0.75;0" begin="12.03s" dur="8s" repeatCount="indefinite"/>
    </circle>
    <circle cx="300" cy="308" r="20">
      <animate attributeName="r" values="18;26;18" begin="13.36s" dur="8s" repeatCount="indefinite"/>
      <animate attributeName="opacity" values="0;0.75;0" begin="13.36s" dur="8s" repeatCount="indefinite"/>
    </circle>
    <circle cx="146" cy="264" r="20">
      <animate attributeName="r" values="18;26;18" begin="14.7s" dur="8s" repeatCount="indefinite"/>
      <animate attributeName="opacity" values="0;0.75;0" begin="14.7s" dur="8s" repeatCount="indefinite"/>
    </circle>
    <circle cx="128" cy="180" r="20">
      <animate attributeName="r" values="18;26;18" begin="16.03s" dur="8s" repeatCount="indefinite"/>
      <animate attributeName="opacity" values="0;0.75;0" begin="16.03s" dur="8s" repeatCount="indefinite"/>
    </circle>
  </g>

  <g class="badge" transform="translate(272 28)">
    <animate attributeName="opacity" from="0" to="1" begin="4.3s" dur="0.35s" fill="freeze"/>
    <circle class="badgeCore" cx="28" cy="24" r="20" fill="#0f2a41"/>
    <rect x="18" y="17" width="20" height="14" rx="4" fill="#06C0E0"/>
    <text x="28" y="26.7" text-anchor="middle" font-family="Sora, Segoe UI, sans-serif" font-size="7" font-weight="800" fill="#0f2a41" letter-spacing="0.35">MCP</text>
  </g>

  <g class="badge" transform="translate(426 72)">
    <animate attributeName="opacity" from="0" to="1" begin="4.6s" dur="0.35s" fill="freeze"/>
    <circle class="badgeCore" cx="28" cy="24" r="20" fill="#1877F2"/>
    <path d="M30 15h4v-4h-4c-4.4 0-7 2.7-7 7v4h-3v4h3v10h4V26h4l1-4h-5v-3c0-2 1.1-4 3-4z" fill="#fff"/>
  </g>

  <g class="badge" transform="translate(438 156)">
    <animate attributeName="opacity" from="0" to="1" begin="4.9s" dur="0.35s" fill="freeze"/>
    <circle class="badgeCore" cx="34" cy="24" r="20" fill="#0f172a"/>
    <path d="M24 14h5l5 7 6-7h5l-9 10 9 10h-5l-6-7-6 7h-5l9-10z" fill="#fff"/>
  </g>

  <g class="badge" transform="translate(414 240)">
    <animate attributeName="opacity" from="0" to="1" begin="5.2s" dur="0.35s" fill="freeze"/>
    <circle class="badgeCore" cx="40" cy="24" r="20" fill="#111111"/>
    <path d="M43 14c1 2 2.5 3.4 5 3.8v4.2c-2.1 0-3.8-.7-5-1.8v6.5a6.8 6.8 0 1 1-5.5-6.7v4a2.8 2.8 0 1 0 1.5 2.5V14z" fill="#25F4EE"/>
    <path d="M41 14c1 2 2.5 3.4 5 3.8v2.8c-2.1 0-3.8-.7-5-1.8v7.9a6.8 6.8 0 1 1-5.5-6.7v2.6a4.2 4.2 0 1 0 1.5 3.2V14z" fill="#FE2C55" opacity="0.8"/>
  </g>

  <g class="badge" transform="translate(258 286)">
    <animate attributeName="opacity" from="0" to="1" begin="5.5s" dur="0.35s" fill="freeze"/>
    <circle class="badgeCore" cx="42" cy="24" r="20" fill="#e1306c"/>
    <rect x="33.5" y="15.5" width="17" height="17" rx="5" fill="none" stroke="#fff" stroke-width="2"/>
    <circle cx="42" cy="24" r="4" fill="none" stroke="#fff" stroke-width="2"/>
    <circle cx="47" cy="19" r="1.5" fill="#fff"/>
  </g>

  <g class="badge" transform="translate(104 240)">
    <animate attributeName="opacity" from="0" to="1" begin="5.8s" dur="0.35s" fill="freeze"/>
    <circle class="badgeCore" cx="42" cy="24" r="20" fill="#ffffff"/>
    <path d="M33 29V19l9 7 9-7v10" fill="none" stroke="#ea4335" stroke-width="2.2" stroke-linecap="round" stroke-linejoin="round"/>
    <path d="M33 20l9 7 9-7" fill="none" stroke="#ea4335" stroke-width="2.2" stroke-linecap="round" stroke-linejoin="round"/>
  </g>

  <g class="badge" transform="translate(92 156)">
    <animate attributeName="opacity" from="0" to="1" begin="6.1s" dur="0.35s" fill="freeze"/>
    <circle class="badgeCore" cx="36" cy="24" r="20" fill="#f58529"/>
    <path d="M29 16c4-3 11-1 14 4-3-1-6-1-8 1s-2 5-1 8c-5-3-7-9-5-13z" fill="#fff"/>
    <path d="M33 23c3-2 7-1 9 2-2-1-4 0-5 1s-1 3 0 4c-3-2-5-5-4-7z" fill="#fff" opacity="0.8"/>
  </g>

  <g transform="translate(548 66)">
    <text x="0" y="82" font-family="Sora, Segoe UI, sans-serif" font-size="56" font-weight="800" fill="#ecf8ff" letter-spacing="0.2">LinkSync </text>
    <text x="252" y="82" font-family="Sora, Segoe UI, sans-serif" font-size="56" font-weight="800" fill="#06C0E0" letter-spacing="0.2">AI</text>
    <text x="0" y="126" font-family="Plus Jakarta Sans, Segoe UI, sans-serif" font-size="19" font-weight="700" fill="#d7ecff">Your links, synced smarter by MCP + AI.</text>
  </g>
</svg>

